<?xml version="1.0" encoding="utf-8"?>
<!-- Generator: Adobe Illustrator 19.1.0, SVG Export Plug-In . SVG Version: 6.00 Build 0)  -->
<svg version="1.1" id="Layer_1" xmlns="http://www.w3.org/2000/svg" xmlns:xlink="http://www.w3.org/1999/xlink" x="0px" y="0px"
	 viewBox="0 0 785.9 560" style="enable-background:new 0 0 785.9 560;" xml:space="preserve">
<style type="text/css">
	.st0{fill:none;stroke:#3FA9F5;stroke-width:3;stroke-miterlimit:10;}
	.st1{fill:#3FA9F5;stroke:#3FA9F5;stroke-width:3;stroke-miterlimit:10;}
	.st2{fill:#644172;}
	.st3{fill:#1C758A;}
	.st4{fill:#699C52;}
</style>
<g>
	<path d="M492.8,468.3H509c3.5,0,5.2,0,5.2-2.7c0-1.5-1.7-1.5-4.8-1.5h-15.2c6.2-19.4,7.1-22.2,7.1-23c0-2.3-2.1-3.7-5-3.7
		c-0.5,0-5.4,0.1-6.9,4.9l-6.7,21.7h-16.2c-3.5,0-5.2,0-5.2,2.6c0,1.6,1.4,1.6,4.8,1.6h15.2c-12.4,38.8-13.1,41.2-13.1,43.6
		c0,7.4,6.6,12.6,15.9,12.6c17.6,0,27.5-20,27.5-21.1c0-1.4-1.4-1.4-2.1-1.4c-1.6,0-1.7,0.4-2.6,1.9c-7.4,14.2-16.6,17.5-22.4,17.5
		c-3.6,0-5.4-1.8-5.4-6.3c0-3.3,0.3-4.2,1-6.6L492.8,468.3z"/>
</g>
<g>
	<path d="M273.7,267.6c0.4-1.7,2.1-7.7,7.2-7.7c0.4,0,2.1,0,3.7,0.8c-2,0.3-3.5,2-3.5,3.5c0,1,0.8,2.3,2.8,2.3
		c1.6,0,3.9-1.2,3.9-3.8c0-3.4-4.3-4.3-6.8-4.3c-4.2,0-6.8,3.5-7.7,5c-1.8-4.3-5.8-5-7.9-5c-7.6,0-11.8,8.4-11.8,10
		c0,0.7,0.7,0.7,0.9,0.7c0.6,0,0.8-0.1,0.9-0.7c2.5-6.9,7.3-8.5,9.8-8.5c1.4,0,3.9,0.6,3.9,4.4c0,2-1.2,6.4-3.9,15.5
		c-1.2,4-3.7,6.8-6.9,6.8c-0.4,0-2.1,0-3.7-0.8c1.8-0.3,3.4-1.7,3.4-3.5c0-1.8-1.6-2.3-2.7-2.3c-2.2,0-4,1.7-4,3.8
		c0,3,3.7,4.3,6.9,4.3c4.8,0,7.5-4.6,7.7-5c0.9,2.4,3.5,5,7.9,5c7.5,0,11.7-8.4,11.7-10c0-0.7-0.7-0.7-0.9-0.7
		c-0.7,0-0.8,0.3-0.9,0.7c-2.4,7-7.4,8.5-9.7,8.5c-2.8,0-4-2.1-4-4.3c0-1.4,0.4-2.9,1.2-5.7L273.7,267.6z"/>
	<path d="M315.2,302.9c0-0.2,0-0.3-1.2-1.4c-9.1-8.2-11.5-20.5-11.5-30.5c0-11.3,2.8-22.7,11.8-30.8c0.9-0.8,0.9-0.9,0.9-1.1
		c0-0.5-0.3-0.7-0.7-0.7c-0.7,0-7.3,4.4-11.6,12.7c-3.7,7.2-4.6,14.4-4.6,19.9c0,5.1,0.8,13,4.8,20.3c4.4,8,10.7,12.3,11.4,12.3
		C314.9,303.6,315.2,303.4,315.2,302.9z"/>
	<path d="M334.5,261.2h6.9c1.5,0,2.2,0,2.2-1.3c0-0.7-0.7-0.7-2-0.7h-6.4c2.6-9.3,3-10.6,3-11c0-1.1-0.9-1.8-2.1-1.8
		c-0.2,0-2.3,0.1-2.9,2.3l-2.8,10.4h-6.9c-1.5,0-2.2,0-2.2,1.2c0,0.8,0.6,0.8,2,0.8h6.4c-5.3,18.5-5.6,19.6-5.6,20.8
		c0,3.5,2.8,6,6.7,6c7.5,0,11.6-9.5,11.6-10c0-0.7-0.6-0.7-0.9-0.7c-0.7,0-0.7,0.2-1.1,0.9c-3.1,6.8-7,8.3-9.5,8.3
		c-1.5,0-2.3-0.8-2.3-3c0-1.6,0.1-2,0.4-3.1L334.5,261.2z"/>
	<path d="M366.9,270.9c0-5.1-0.8-13-4.8-20.3c-4.4-8-10.7-12.3-11.4-12.3c-0.4,0-0.7,0.3-0.7,0.7c0,0.2,0,0.3,1.4,1.5
		c7.2,6.5,11.3,16.8,11.3,30.5c0,11.2-2.7,22.6-11.8,30.8c-0.9,0.8-0.9,0.9-0.9,1.1c0,0.4,0.3,0.7,0.7,0.7c0.7,0,7.3-4.4,11.6-12.7
		C366.1,283.7,366.9,276.4,366.9,270.9z"/>
</g>
<g>
	<path d="M655.6,302.6c7.5,0,14.9-5.9,16.9-13.2l6.9-24.7c0.3-0.9,0.3-1,0.3-1.5c0-1.2-1-1.7-2.1-1.7c-0.7,0-1.9,0.4-2.5,1.4
		c-0.1,0.3-0.7,2.3-1,3.5c-0.5,1.7-1,3.4-1.4,5.2l-3.3,11.6c-0.3,1-3.4,5.5-8.2,5.5c-3.7,0-4.5-2.8-4.5-5.2c0-3,1.2-7,3.7-12.7
		c1.2-2.6,1.4-3.4,1.4-4.7c0-2.9-2.3-5.3-5.9-5.3c-6.9,0-9.6,9.4-9.6,9.9c0,0.6,0.7,0.6,0.9,0.6c0.7,0,0.8-0.1,1.2-1.2
		c2-6.1,4.8-8,7.3-8c0.6,0,1.8,0,1.8,2.1c0,1.6-0.7,3.3-1.2,4.5c-2.9,6.8-4.2,10.5-4.2,13.6c0,5.7,4.6,7.7,8.8,7.7
		c2.8,0,5.3-1.1,7.3-2.9c-0.9,3.4-1.8,6.5-4.7,9.9c-1.9,2.2-4.6,4.1-8,4.1"/>
	<path d="M650.1,298.4c1.2,0,2.1,0,3.1-0.8c0.7-0.6,1.4-1.4,1.4-2.6c0-2-2-2.3-2.7-2.3c-1.7,0-4.1,1-4.1,4.2c0,3.2,3.2,5.6,7.7,5.6"
		/>
	<path d="M706.3,304.8c0-0.2,0-0.3-1.2-1.4c-9-8.1-11.4-20.3-11.4-30.2c0-11.2,2.8-22.5,11.7-30.6c0.9-0.8,0.9-0.9,0.9-1.1
		c0-0.5-0.3-0.6-0.7-0.6c-0.7,0-7.2,4.4-11.5,12.6c-3.7,7.1-4.6,14.3-4.6,19.7c0,5,0.8,12.9,4.8,20.2c4.3,7.9,10.6,12.1,11.3,12.1
		C706,305.5,706.3,305.3,706.3,304.8z"/>
	<path d="M725.4,263.5h6.8c1.4,0,2.2,0,2.2-1.3c0-0.7-0.7-0.7-2-0.7H726c2.6-9.2,3-10.5,3-10.9c0-1.1-0.9-1.7-2.1-1.7
		c-0.2,0-2.2,0.1-2.9,2.3l-2.8,10.3h-6.8c-1.4,0-2.2,0-2.2,1.2c0,0.8,0.6,0.8,2,0.8h6.4c-5.2,18.3-5.5,19.4-5.5,20.6
		c0,3.5,2.7,5.9,6.7,5.9c7.4,0,11.5-9.4,11.5-9.9c0-0.6-0.6-0.6-0.9-0.6c-0.7,0-0.7,0.2-1.1,0.9c-3.1,6.7-6.9,8.3-9.4,8.3
		c-1.5,0-2.2-0.8-2.2-3c0-1.6,0.1-2,0.4-3.1L725.4,263.5z"/>
	<path d="M757.6,273.2c0-5-0.8-12.9-4.8-20.2c-4.3-7.9-10.6-12.1-11.3-12.1c-0.4,0-0.7,0.3-0.7,0.6c0,0.2,0,0.3,1.4,1.5
		c7.1,6.4,11.2,16.7,11.2,30.2c0,11-2.7,22.4-11.7,30.6c-0.9,0.8-0.9,0.9-0.9,1.1c0,0.4,0.3,0.6,0.7,0.6c0.7,0,7.2-4.4,11.5-12.6
		C756.7,285.8,757.6,278.6,757.6,273.2z"/>
</g>
<g>
	<path d="M399.9,70.6h4.1c1,0,1.4,0,1.4-0.9c0-0.5-0.5-0.5-1.3-0.5h-4l1-4.9c0.2-0.9,0.9-4,1.2-4.5c0.4-0.8,1.3-1.5,2.3-1.5
		c0.2,0,1.4,0,2.4,0.8c-2.1,0.2-2.6,1.7-2.6,2.3c0,1,0.9,1.5,1.8,1.5c1.3,0,2.6-0.9,2.6-2.6c0-2-2.2-3-4.2-3c-1.6,0-4.7,0.8-6.1,5
		c-0.3,0.9-0.4,1.3-1.6,6.8h-3.3c-0.9,0-1.4,0-1.4,0.8c0,0.5,0.4,0.5,1.3,0.5h3.2l-3.6,17c-0.9,4.2-1.7,8.1-4.2,8.1
		c-0.2,0-1.4,0-2.3-0.8c2.2-0.1,2.6-1.7,2.6-2.3c0-1-0.9-1.5-1.8-1.5c-1.3,0-2.6,0.9-2.6,2.6c0,1.9,2.1,3,4.1,3
		c2.6,0,4.6-2.5,5.4-4.2c1.5-2.7,2.6-7.9,2.7-8.2L399.9,70.6z"/>
	<path d="M426.9,98.1c0-0.1,0-0.2-0.8-0.9c-6-5.4-7.6-13.5-7.6-20.1c0-7.5,1.8-15,7.8-20.3c0.6-0.5,0.6-0.6,0.6-0.7
		c0-0.3-0.2-0.4-0.5-0.4c-0.5,0-4.8,2.9-7.7,8.4c-2.5,4.7-3,9.5-3,13.1c0,3.4,0.5,8.6,3.2,13.4c2.9,5.3,7,8.1,7.5,8.1
		C426.7,98.5,426.9,98.4,426.9,98.1z"/>
	<path d="M445.8,74.8c0.3-1.1,1.4-5.1,4.8-5.1c0.2,0,1.4,0,2.4,0.6c-1.3,0.2-2.3,1.3-2.3,2.3c0,0.7,0.5,1.5,1.8,1.5
		c1.1,0,2.6-0.8,2.6-2.5c0-2.2-2.8-2.8-4.5-2.8c-2.8,0-4.5,2.3-5.1,3.3c-1.2-2.8-3.8-3.3-5.2-3.3c-5,0-7.8,5.5-7.8,6.6
		c0,0.4,0.5,0.4,0.6,0.4c0.4,0,0.5-0.1,0.6-0.5c1.6-4.6,4.8-5.6,6.5-5.6c0.9,0,2.6,0.4,2.6,2.9c0,1.3-0.8,4.2-2.6,10.2
		c-0.8,2.7-2.5,4.5-4.6,4.5c-0.3,0-1.4,0-2.4-0.6c1.2-0.2,2.3-1.1,2.3-2.3c0-1.2-1.1-1.5-1.8-1.5c-1.4,0-2.6,1.1-2.6,2.5
		c0,2,2.4,2.8,4.5,2.8c3.2,0,4.9-3,5.1-3.3c0.6,1.6,2.3,3.3,5.2,3.3c5,0,7.7-5.5,7.7-6.6c0-0.4-0.4-0.4-0.6-0.4
		c-0.4,0-0.5,0.2-0.6,0.5c-1.6,4.6-4.9,5.6-6.4,5.6c-1.9,0-2.6-1.4-2.6-2.8c0-0.9,0.3-1.9,0.8-3.8L445.8,74.8z"/>
	<path d="M473.2,98.1c0-0.1,0-0.2-0.8-0.9c-6-5.4-7.6-13.5-7.6-20.1c0-7.5,1.8-15,7.8-20.3c0.6-0.5,0.6-0.6,0.6-0.7
		c0-0.3-0.2-0.4-0.5-0.4c-0.5,0-4.8,2.9-7.7,8.4c-2.5,4.7-3,9.5-3,13.1c0,3.4,0.5,8.6,3.2,13.4c2.9,5.3,7,8.1,7.5,8.1
		C473,98.5,473.2,98.4,473.2,98.1z"/>
	<path d="M485.9,70.6h4.5c1,0,1.4,0,1.4-0.9c0-0.5-0.5-0.5-1.3-0.5h-4.2c1.7-6.1,2-7,2-7.2c0-0.7-0.6-1.2-1.4-1.2
		c-0.1,0-1.5,0-1.9,1.5l-1.9,6.8h-4.5c-1,0-1.4,0-1.4,0.8c0,0.5,0.4,0.5,1.3,0.5h4.2c-3.5,12.2-3.7,12.9-3.7,13.7c0,2.3,1.8,4,4.4,4
		c4.9,0,7.7-6.3,7.7-6.6c0-0.4-0.4-0.4-0.6-0.4c-0.4,0-0.5,0.1-0.7,0.6c-2.1,4.5-4.6,5.5-6.3,5.5c-1,0-1.5-0.6-1.5-2
		c0-1,0.1-1.3,0.3-2.1L485.9,70.6z"/>
	<path d="M507.3,77c0-3.4-0.5-8.6-3.2-13.4c-2.9-5.3-7-8.1-7.5-8.1c-0.3,0-0.5,0.2-0.5,0.4c0,0.1,0,0.2,0.9,1
		c4.7,4.3,7.5,11.1,7.5,20.1c0,7.4-1.8,14.9-7.8,20.3c-0.6,0.5-0.6,0.6-0.6,0.7c0,0.3,0.2,0.4,0.5,0.4c0.5,0,4.8-2.9,7.7-8.4
		C506.7,85.4,507.3,80.6,507.3,77z"/>
	<path d="M556.9,71.4c0.2-0.6,0.2-0.7,0.2-1c0-0.8-0.7-1.2-1.4-1.2c-0.5,0-1.3,0.3-1.7,0.9c-0.1,0.2-0.5,1.5-0.7,2.3
		c-0.3,1.1-0.7,2.3-1,3.4l-2.2,7.7c-0.2,0.6-2.3,3.7-5.4,3.7c-2.5,0-3-1.9-3-3.5c0-2,0.8-4.6,2.5-8.4c0.8-1.8,1-2.2,1-3.1
		c0-1.9-1.5-3.5-3.9-3.5c-4.6,0-6.4,6.2-6.4,6.6c0,0.4,0.5,0.4,0.6,0.4c0.5,0,0.5-0.1,0.8-0.8c1.3-4,3.2-5.3,4.9-5.3
		c0.4,0,1.2,0,1.2,1.4c0,1.1-0.5,2.2-0.8,3c-1.9,4.6-2.8,7-2.8,9c0,3.8,3,5.1,5.9,5.1c1.9,0,3.5-0.7,4.9-1.9
		c-0.6,2.2-1.2,4.3-3.1,6.6c-1.3,1.5-3.1,2.7-5.3,2.7c-0.7,0-2.8-0.1-3.7-1.8c0.8,0,1.4,0,2.1-0.5c0.5-0.4,1-0.9,1-1.8
		c0-1.3-1.3-1.5-1.8-1.5c-1.1,0-2.7,0.7-2.7,2.8c0,2.1,2.1,3.7,5.1,3.7c5,0,9.9-3.9,11.3-8.8L556.9,71.4z M521.8,87.7
		c0-2.8-1.2-4.5-3.1-4.5c-1.6,0-2.6,1.1-2.6,2.3c0,1.2,1,2.3,2.6,2.3c0.6,0,1.2-0.2,1.7-0.6l0.2-0.1c0,0,0.1,0,0.1,0.6
		c0,3.2-1.7,5.8-3.3,7.2c-0.5,0.5-0.5,0.6-0.5,0.7c0,0.3,0.2,0.5,0.5,0.5C518,96.1,521.8,92.8,521.8,87.7z"/>
	<path d="M574.8,98.1c0-0.1,0-0.2-0.8-0.9c-6-5.4-7.6-13.5-7.6-20.1c0-7.5,1.8-15,7.8-20.3c0.6-0.5,0.6-0.6,0.6-0.7
		c0-0.3-0.2-0.4-0.5-0.4c-0.5,0-4.8,2.9-7.7,8.4c-2.5,4.7-3,9.5-3,13.1c0,3.4,0.5,8.6,3.2,13.4c2.9,5.3,7,8.1,7.5,8.1
		C574.6,98.5,574.8,98.4,574.8,98.1z"/>
	<path d="M587.5,70.6h4.5c1,0,1.4,0,1.4-0.9c0-0.5-0.5-0.5-1.3-0.5h-4.2c1.7-6.1,2-7,2-7.2c0-0.7-0.6-1.2-1.4-1.2
		c-0.1,0-1.5,0-1.9,1.5l-1.9,6.8h-4.5c-1,0-1.4,0-1.4,0.8c0,0.5,0.4,0.5,1.3,0.5h4.2c-3.5,12.2-3.7,12.9-3.7,13.7c0,2.3,1.8,4,4.4,4
		c4.9,0,7.7-6.3,7.7-6.6c0-0.4-0.4-0.4-0.6-0.4c-0.4,0-0.5,0.1-0.7,0.6c-2.1,4.5-4.6,5.5-6.3,5.5c-1,0-1.5-0.6-1.5-2
		c0-1,0.1-1.3,0.3-2.1L587.5,70.6z"/>
	<path d="M627.6,77c0-3.4-0.5-8.6-3.2-13.4c-2.9-5.3-7-8.1-7.5-8.1c-0.3,0-0.5,0.2-0.5,0.4c0,0.1,0,0.2,0.9,1
		c4.7,4.3,7.5,11.1,7.5,20.1c0,7.4-1.8,14.9-7.8,20.3c-0.6,0.5-0.6,0.6-0.6,0.7c0,0.3,0.2,0.4,0.5,0.4c0.5,0,4.8-2.9,7.7-8.4
		C627,85.4,627.6,80.6,627.6,77z M608.9,77c0-3.4-0.5-8.6-3.2-13.4c-2.9-5.3-7-8.1-7.5-8.1c-0.3,0-0.5,0.2-0.5,0.4
		c0,0.1,0,0.2,0.9,1c4.7,4.3,7.5,11.1,7.5,20.1c0,7.4-1.8,14.9-7.8,20.3c-0.6,0.5-0.6,0.6-0.6,0.7c0,0.3,0.2,0.4,0.5,0.4
		c0.5,0,4.8-2.9,7.7-8.4C608.3,85.4,608.9,80.6,608.9,77z"/>
</g>
<g>
	<line class="st0" x1="446.8" y1="436.7" x2="355.5" y2="322.1"/>
	<polygon class="st1" points="369.6,328 357.9,336.8 355.5,322.1 	"/>
</g>
<g>
	<line class="st0" x1="667.8" y1="232.7" x2="576.5" y2="118.1"/>
	<polygon class="st1" points="590.6,124 578.9,132.8 576.5,118.1 	"/>
</g>
<g>
	<line class="st0" x1="543.5" y1="440.7" x2="634.8" y2="326.1"/>
	<polygon class="st1" points="620.6,332 632.3,340.8 634.8,326.1 	"/>
</g>
<g>
	<line class="st0" x1="346.5" y1="230.7" x2="437.8" y2="116.1"/>
	<polygon class="st1" points="423.6,122 435.3,130.8 437.8,116.1 	"/>
</g>
<g>
	<path class="st2" d="M326.1,477.2h10.4v-2.2h-10.4v-13.3h-1.8c-0.1,5.9-2.2,13.7-9.4,14v1.6h6.2v20c0,8.9,6.7,9.8,9.4,9.8
		c5.2,0,7.2-5.2,7.2-9.8v-4.1h-1.8v4c0,5.4-2.2,8.1-4.9,8.1c-4.9,0-4.9-6.6-4.9-7.8V477.2z M301.6,500.5v6.5l10.4-0.8V504
		c-5.1,0-5.7-0.5-5.7-4.1v-25.8l-10.7,0.8v2.2c5.1,0,5.7,0.5,5.7,4.1v12.9c0,6.3-3.5,11.2-8.8,11.2c-6.1,0-6.4-3.4-6.4-7.2v-24.1
		l-10.7,0.8v2.2c5.7,0,5.7,0.2,5.7,6.7v10.9c0,5.7,0,12.3,11,12.3C296.3,507,299.5,505,301.6,500.5z M245.6,497.9v-16.2
		c2.1-3.7,5.7-5.8,9.4-5.8c5.3,0,9.7,6.4,9.7,14.6c0,8.8-5.1,14.9-10.4,14.9c-2.9,0-5.7-1.5-7.6-4.4
		C245.6,499.5,245.6,499.4,245.6,497.9z M245.4,478.9v-4.8l-10.4,0.8v2.2c5.2,0,5.7,0.4,5.7,3.6v34c0,3.3-0.8,3.3-5.7,3.3v2.2
		c2.5-0.1,6.2-0.2,8.1-0.2c2,0,5.7,0.1,8.2,0.2V518c-4.9,0-5.7,0-5.7-3.3v-12.2v-0.7c0.4,1.2,3.4,5.1,8.9,5.1
		c8.6,0,16.2-7.1,16.2-16.5c0-9.2-7-16.4-15.2-16.4C249.9,474.1,246.9,477.3,245.4,478.9z M200.6,481.3v19.4c0,3.3-0.8,3.3-5.7,3.3
		v2.2c2.5-0.1,6.2-0.2,8.2-0.2c1.9,0,5.7,0.1,8.1,0.2V504c-4.9,0-5.7,0-5.7-3.3v-13.3c0-7.5,5.2-11.6,9.8-11.6
		c4.6,0,5.4,3.9,5.4,8.1v16.9c0,3.3-0.8,3.3-5.7,3.3v2.2c2.5-0.1,6.2-0.2,8.2-0.2c1.9,0,5.7,0.1,8.1,0.2V504c-3.8,0-5.6,0-5.7-2.2
		v-13.9c0-6.2,0-8.5-2.2-11.1c-1-1.2-3.4-2.7-7.6-2.7c-5.3,0-8.7,3.1-10.7,7.6v-7.6l-10.2,0.8v2.2
		C200,477.2,200.6,477.7,200.6,481.3z M185.6,461.5c0-2.3-1.8-3.8-3.8-3.8c-2.2,0-3.8,2-3.8,3.8c0,2,1.6,3.8,3.8,3.8
		C183.8,465.4,185.6,463.8,185.6,461.5z M185.3,474.1l-10.2,0.8v2.2c4.7,0,5.4,0.4,5.4,4v19.5c0,3.3-0.8,3.3-5.7,3.3v2.2
		c2.3-0.1,6.2-0.2,8-0.2c2.5,0,5.1,0.1,7.5,0.2V504c-4.8,0-5.1-0.4-5.1-3.2V474.1z M124.1,489.5h20.2c1.6,0,1.8,0,1.8-1.5
		c0-7.2-3.9-14.2-13-14.2c-8.4,0-15.1,7.5-15.1,16.5c0,9.7,7.6,16.8,16,16.8c8.9,0,12.1-8.1,12.1-9.4c0-0.7-0.6-0.9-0.9-0.9
		c-0.7,0-0.8,0.4-0.9,1c-2.5,7.5-9.1,7.5-9.8,7.5c-3.6,0-6.5-2.2-8.2-4.9C124.1,496.9,124.1,492.1,124.1,489.5z M124.2,487.9
		c0.4-10.8,6.5-12.6,9-12.6c7.5,0,8.2,9.8,8.2,12.6H124.2z M83.7,481.3v19.4c0,3.3-0.8,3.3-5.7,3.3v2.2c2.5-0.1,6.2-0.2,8.2-0.2
		c1.9,0,5.7,0.1,8.1,0.2V504c-4.9,0-5.7,0-5.7-3.3v-13.3c0-7.5,5.2-11.6,9.8-11.6c4.6,0,5.4,3.9,5.4,8.1v16.9c0,3.3-0.8,3.3-5.7,3.3
		v2.2c2.5-0.1,6.2-0.2,8.2-0.2c1.9,0,5.7,0.1,8.1,0.2V504c-3.8,0-5.6,0-5.7-2.2v-13.9c0-6.2,0-8.5-2.2-11.1c-1-1.2-3.4-2.7-7.6-2.7
		c-5.3,0-8.7,3.1-10.7,7.6v-7.6l-10.2,0.8v2.2C83.2,477.2,83.7,477.7,83.7,481.3z M47.6,505.9c-7,0-16.7-6.4-16.7-25.3
		c0-18.8,10.6-23.7,16.6-23.7c6.3,0,16.7,5.2,16.7,23.7C64.2,499.8,54.2,505.9,47.6,505.9z M71.6,481.6c0-14.8-11-26.6-24.2-26.6
		c-13,0-24.1,11.6-24.1,26.6c0,14.9,11.2,26.2,24.1,26.2C60.7,507.8,71.6,496.3,71.6,481.6z"/>
</g>
<path class="st3" d="M164.3,292.4c0.7,0.1,3.2,0.6,3.2,2.8c0,1.6-1.1,2.8-3.5,2.8c-2.6,0-3.7-1.7-4.3-4.3c-0.1-0.4-0.1-0.5-0.4-0.5
	c-0.4,0-0.4,0.2-0.4,0.8v4c0,0.5,0,0.7,0.3,0.7c0.2,0,0.2,0,0.8-0.6c0.1-0.1,0.1-0.1,0.6-0.7c1.3,1.3,2.7,1.3,3.4,1.3
	c3.5,0,4.9-2.1,4.9-4.3c0-1.6-0.9-2.5-1.3-2.9c-1-1-2.2-1.2-3.5-1.5c-1.7-0.3-3.8-0.7-3.8-2.5c0-1.1,0.8-2.3,3.4-2.3
	c3.4,0,3.5,2.8,3.6,3.7c0,0.3,0.3,0.3,0.4,0.3c0.4,0,0.4-0.2,0.4-0.7v-3.1c0-0.5,0-0.7-0.3-0.7c-0.2,0-0.2,0-0.6,0.4l-0.5,0.5
	c-1.2-0.9-2.4-0.9-2.9-0.9c-3.7,0-4.9,2.1-4.9,3.8c0,1.1,0.5,1.9,1.3,2.6C161.2,291.7,162.1,291.9,164.3,292.4z M151.3,286h4.4v-0.9
	h-4.4v-5.6h-0.8c0,2.5-0.9,5.8-4,5.9v0.7h2.6v8.5c0,3.8,2.8,4.1,4,4.1c2.2,0,3-2.2,3-4.1v-1.7h-0.8v1.7c0,2.3-0.9,3.4-2.1,3.4
	c-2.1,0-2.1-2.8-2.1-3.3V286z M141,295.9v2.8l4.4-0.3v-0.9c-2.1,0-2.4-0.2-2.4-1.7v-10.9l-4.5,0.3v0.9c2.1,0,2.4,0.2,2.4,1.7v5.5
	c0,2.7-1.5,4.7-3.7,4.7c-2.6,0-2.7-1.4-2.7-3v-10.2l-4.5,0.3v0.9c2.4,0,2.4,0.1,2.4,2.8v4.6c0,2.4,0,5.2,4.7,5.2
	C138.7,298.6,140.1,297.8,141,295.9z M117.3,294.8V288c0.9-1.6,2.4-2.5,4-2.5c2.2,0,4.1,2.7,4.1,6.2c0,3.7-2.1,6.3-4.4,6.3
	c-1.2,0-2.4-0.6-3.2-1.9C117.3,295.5,117.3,295.4,117.3,294.8z M117.2,286.8v-2l-4.4,0.3v0.9c2.2,0,2.4,0.2,2.4,1.5v14.3
	c0,1.4-0.3,1.4-2.4,1.4v0.9c1,0,2.6-0.1,3.4-0.1c0.8,0,2.4,0.1,3.5,0.1v-0.9c-2.1,0-2.4,0-2.4-1.4v-5.1v-0.3
	c0.2,0.5,1.4,2.1,3.8,2.1c3.6,0,6.8-3,6.8-7c0-3.9-3-6.9-6.4-6.9C119.1,284.8,117.8,286.1,117.2,286.8z M105.3,286h4.4v-0.9h-4.4
	v-5.6h-0.8c0,2.5-0.9,5.8-4,5.9v0.7h2.6v8.5c0,3.8,2.8,4.1,4,4.1c2.2,0,3-2.2,3-4.1v-1.7h-0.8v1.7c0,2.3-0.9,3.4-2.1,3.4
	c-2.1,0-2.1-2.8-2.1-3.3V286z M95,295.9v2.8l4.4-0.3v-0.9c-2.1,0-2.4-0.2-2.4-1.7v-10.9l-4.5,0.3v0.9c2.1,0,2.4,0.2,2.4,1.7v5.5
	c0,2.7-1.5,4.7-3.7,4.7c-2.6,0-2.7-1.4-2.7-3v-10.2l-4.5,0.3v0.9c2.4,0,2.4,0.1,2.4,2.8v4.6c0,2.4,0,5.2,4.7,5.2
	C92.8,298.6,94.1,297.8,95,295.9z M75.4,297.9c-1.3,0-2.7-0.6-3.5-2.1c-0.8-1.3-0.8-3.2-0.8-4.3c0-1.2,0-2.8,0.7-4.2
	c0.8-1.4,2.3-2.1,3.5-2.1c1.3,0,2.7,0.7,3.5,2c0.8,1.3,0.8,3.1,0.8,4.3c0,1.1,0,2.8-0.7,4.1C78.3,297,76.9,297.9,75.4,297.9z
	 M82.1,291.7c0-3.9-3.1-7.2-6.8-7.2c-3.8,0-6.8,3.3-6.8,7.2c0,4,3.2,6.9,6.8,6.9C79.1,298.6,82.1,295.6,82.1,291.7z M228.3,261.1
	h8.5c0.7,0,0.8,0,0.8-0.6c0-3-1.7-6-5.5-6c-3.6,0-6.4,3.2-6.4,7c0,4.1,3.2,7.1,6.7,7.1c3.7,0,5.1-3.4,5.1-4c0-0.3-0.2-0.4-0.4-0.4
	c-0.3,0-0.3,0.2-0.4,0.4c-1.1,3.2-3.8,3.2-4.1,3.2c-1.5,0-2.8-0.9-3.5-2.1C228.3,264.2,228.3,262.2,228.3,261.1z M228.3,260.4
	c0.2-4.6,2.8-5.3,3.8-5.3c3.2,0,3.5,4.1,3.5,5.3H228.3z M218.3,255.9h4.4v-0.9h-4.4v-5.6h-0.8c0,2.5-0.9,5.8-4,5.9v0.7h2.6v8.5
	c0,3.8,2.8,4.1,4,4.1c2.2,0,3-2.2,3-4.1v-1.7h-0.8v1.7c0,2.3-0.9,3.4-2.1,3.4c-2.1,0-2.1-2.8-2.1-3.3V255.9z M207.7,260.8v3.1
	c0,2.9-2.2,4-3.6,4c-1.5,0-2.8-1.1-2.8-2.6C201.3,263.5,202.6,261,207.7,260.8z M207.9,265.8c0.1,1.2,0.9,2.5,2.4,2.5
	c0.6,0,2.5-0.4,2.5-2.9v-1.7H212v1.7c0,1.8-0.8,2-1.1,2c-1,0-1.1-1.4-1.1-1.5v-6.1c0-1.3,0-2.5-1.1-3.6c-1.2-1.2-2.7-1.7-4.2-1.7
	c-2.5,0-4.6,1.4-4.6,3.5c0,0.9,0.6,1.4,1.4,1.4c0.9,0,1.4-0.6,1.4-1.4c0-0.4-0.2-1.4-1.6-1.4c0.8-1.1,2.3-1.4,3.3-1.4
	c1.5,0,3.2,1.2,3.2,3.9v1.1c-1.6,0.1-3.7,0.2-5.6,1.1c-2.3,1-3.1,2.6-3.1,4c0,2.5,3,3.2,4.9,3.2
	C205.9,268.5,207.3,267.2,207.9,265.8z M194.7,249.3c0-1-0.8-1.6-1.6-1.6c-0.9,0-1.6,0.8-1.6,1.6c0,0.8,0.7,1.6,1.6,1.6
	C194,250.9,194.7,250.2,194.7,249.3z M194.6,254.6l-4.3,0.3v0.9c2,0,2.3,0.2,2.3,1.7v8.2c0,1.4-0.3,1.4-2.4,1.4v0.9
	c1,0,2.6-0.1,3.4-0.1c1.1,0,2.1,0.1,3.2,0.1v-0.9c-2,0-2.1-0.2-2.1-1.3V254.6z M183.8,258.2v6.3c0,0.6,0,0.6-0.3,1.1
	c-0.9,1.5-2.3,2.1-3.6,2.1c-1.4,0-2.5-0.8-3.2-2c-0.8-1.3-0.9-3-0.9-4.3c0-1.1,0.1-3,0.9-4.3c0.6-0.9,1.8-2,3.5-2
	c1.1,0,2.4,0.5,3.3,1.8C183.8,257.6,183.8,257.7,183.8,258.2z M183.8,266.4v2l4.5-0.3v-0.9c-2.1,0-2.4-0.2-2.4-1.7v-18.6l-4.4,0.3
	v0.9c2.1,0,2.4,0.2,2.4,1.7v6.6c-0.9-1.1-2.2-1.9-3.9-1.9c-3.6,0-6.8,3-6.8,7c0,3.9,3,6.9,6.5,6.9
	C181.7,268.5,183,267.4,183.8,266.4z M161.9,261.1h8.5c0.7,0,0.8,0,0.8-0.6c0-3-1.7-6-5.5-6c-3.6,0-6.4,3.2-6.4,7
	c0,4.1,3.2,7.1,6.7,7.1c3.7,0,5.1-3.4,5.1-4c0-0.3-0.2-0.4-0.4-0.4c-0.3,0-0.3,0.2-0.4,0.4c-1.1,3.2-3.8,3.2-4.1,3.2
	c-1.5,0-2.8-0.9-3.5-2.1C161.9,264.2,161.9,262.2,161.9,261.1z M162,260.4c0.2-4.6,2.8-5.3,3.8-5.3c3.2,0,3.5,4.1,3.5,5.3H162z
	 M136.4,257.6v8.2c0,1.4-0.3,1.4-2.4,1.4v0.9c1.1,0,2.6-0.1,3.5-0.1c0.8,0,2.4,0.1,3.4,0.1v-0.9c-2.1,0-2.4,0-2.4-1.4v-5.6
	c0-3.2,2.2-4.9,4.1-4.9c1.9,0,2.3,1.7,2.3,3.4v7.1c0,1.4-0.3,1.4-2.4,1.4v0.9c1.1,0,2.6-0.1,3.5-0.1c0.8,0,2.4,0.1,3.4,0.1v-0.9
	c-2.1,0-2.4,0-2.4-1.4v-5.6c0-3.2,2.2-4.9,4.1-4.9c1.9,0,2.3,1.7,2.3,3.4v7.1c0,1.4-0.3,1.4-2.4,1.4v0.9c1.1,0,2.6-0.1,3.5-0.1
	c0.8,0,2.4,0.1,3.4,0.1v-0.9c-1.6,0-2.4,0-2.4-0.9v-5.9c0-2.6,0-3.6-0.9-4.7c-0.4-0.5-1.4-1.1-3.2-1.1c-2.6,0-3.9,1.8-4.4,3
	c-0.4-2.7-2.7-3-4.1-3c-2.2,0-3.7,1.3-4.5,3.2v-3.2l-4.3,0.3v0.9C136.1,255.9,136.4,256.1,136.4,257.6z M126.1,258v-3.4l-4.3,0.3
	v0.9c2.1,0,2.4,0.2,2.4,1.7v8.2c0,1.4-0.3,1.4-2.4,1.4v0.9c1.2,0,2.6-0.1,3.5-0.1c1.2,0,2.7,0,3.9,0.1v-0.9h-0.6
	c-2.3,0-2.3-0.3-2.3-1.4V261c0-3,1.3-5.8,3.6-5.8c0.2,0,0.3,0,0.3,0c-0.1,0-0.7,0.4-0.7,1.2c0,0.9,0.6,1.3,1.3,1.3
	c0.6,0,1.3-0.4,1.3-1.3c0-1-0.9-1.9-2.3-1.9C127.7,254.6,126.6,256.6,126.1,258z M110.8,261.1h8.5c0.7,0,0.8,0,0.8-0.6
	c0-3-1.7-6-5.5-6c-3.6,0-6.4,3.2-6.4,7c0,4.1,3.2,7.1,6.7,7.1c3.7,0,5.1-3.4,5.1-4c0-0.3-0.2-0.4-0.4-0.4c-0.3,0-0.3,0.2-0.4,0.4
	c-1.1,3.2-3.8,3.2-4.1,3.2c-1.5,0-2.8-0.9-3.5-2.1C110.8,264.2,110.8,262.2,110.8,261.1z M110.8,260.4c0.2-4.6,2.8-5.3,3.8-5.3
	c3.2,0,3.5,4.1,3.5,5.3H110.8z M100.8,255.9h4.4v-0.9h-4.4v-5.6H100c0,2.5-0.9,5.8-4,5.9v0.7h2.6v8.5c0,3.8,2.8,4.1,4,4.1
	c2.2,0,3-2.2,3-4.1v-1.7h-0.8v1.7c0,2.3-0.9,3.4-2.1,3.4c-2.1,0-2.1-2.8-2.1-3.3V255.9z M82.7,257.6v8.2c0,1.4-0.3,1.4-2.4,1.4v0.9
	c1.1,0,2.6-0.1,3.5-0.1c0.8,0,2.4,0.1,3.4,0.1v-0.9c-2.1,0-2.4,0-2.4-1.4v-5.6c0-3.2,2.2-4.9,4.1-4.9c1.9,0,2.3,1.7,2.3,3.4v7.1
	c0,1.4-0.3,1.4-2.4,1.4v0.9c1.1,0,2.6-0.1,3.5-0.1c0.8,0,2.4,0.1,3.4,0.1v-0.9c-1.6,0-2.4,0-2.4-0.9v-5.9c0-2.6,0-3.6-0.9-4.7
	c-0.4-0.5-1.4-1.1-3.2-1.1c-2.2,0-3.7,1.3-4.5,3.2v-3.2l-4.3,0.3v0.9C82.5,255.9,82.7,256.1,82.7,257.6z M76.4,249.3
	c0-1-0.8-1.6-1.6-1.6c-0.9,0-1.6,0.8-1.6,1.6c0,0.8,0.7,1.6,1.6,1.6C75.6,250.9,76.4,250.2,76.4,249.3z M76.2,254.6l-4.3,0.3v0.9
	c2,0,2.3,0.2,2.3,1.7v8.2c0,1.4-0.3,1.4-2.4,1.4v0.9c1,0,2.6-0.1,3.4-0.1c1.1,0,2.1,0.1,3.2,0.1v-0.9c-2,0-2.1-0.2-2.1-1.3V254.6z
	 M52.9,267.7c-1.3,0-2.7-0.6-3.5-2.1c-0.8-1.3-0.8-3.2-0.8-4.3c0-1.2,0-2.8,0.7-4.2c0.8-1.4,2.3-2.1,3.5-2.1c1.3,0,2.7,0.7,3.5,2
	c0.8,1.3,0.8,3.1,0.8,4.3c0,1.1,0,2.8-0.7,4.1C55.8,266.8,54.5,267.7,52.9,267.7z M59.7,261.6c0-3.9-3.1-7.2-6.8-7.2
	c-3.8,0-6.8,3.3-6.8,7.2c0,4,3.2,6.9,6.8,6.9C56.6,268.5,59.7,265.5,59.7,261.6z M43,257.8c0.6-1.5,1.5-1.9,2.6-2v-0.9
	c-0.7,0.1-1.6,0.1-2.2,0.1c-0.9,0-2.3-0.1-2.8-0.1v0.9c1.1,0,1.8,0.6,1.8,1.5c0,0.2,0,0.2-0.2,0.6l-2.8,7.8l-3-8.5
	c-0.1-0.4-0.2-0.4-0.2-0.6c0-0.8,1.2-0.8,1.8-0.8v-0.9c-0.9,0-2.5,0.1-3.2,0.1c-0.9,0-1.8,0-2.7-0.1v0.9c1.1,0,1.6,0.1,1.9,0.5
	c0.2,0.2,0.5,1.1,0.7,1.7l-2.6,7.4l-2.9-8.2c-0.2-0.4-0.2-0.4-0.2-0.6c0-0.8,1.2-0.8,1.8-0.8v-0.9c-0.9,0-2.6,0.1-3.3,0.1
	c-0.1,0-1.7,0-2.8-0.1v0.9c1.5,0,1.9,0.1,2.3,1.1l3.9,10.8c0.2,0.4,0.2,0.7,0.6,0.7c0.4,0,0.5-0.2,0.6-0.6l3.1-8.7l3.1,8.7
	c0.1,0.3,0.2,0.6,0.6,0.6c0.4,0,0.5-0.3,0.6-0.6L43,257.8z M22.3,247.4H3.6L3,254.3h0.8c0.4-4.9,0.9-5.9,5.5-5.9
	c0.6,0,1.3,0,1.7,0.1c0.6,0.1,0.6,0.5,0.6,1.2v16.1c0,1,0,1.5-3.2,1.5H7.1v0.9c1.3-0.1,4.4-0.1,5.8-0.1s4.6,0,5.8,0.1v-0.9h-1.2
	c-3.2,0-3.2-0.4-3.2-1.5v-16.1c0-0.6,0-1,0.6-1.2c0.3-0.1,1.2-0.1,1.7-0.1c4.6,0,5.1,1,5.5,5.9h0.8L22.3,247.4z"/>
<g>
	<path class="st4" d="M344.7,66.3h6.8v-1.5h-6.8V56h-1.2c0,3.9-1.5,9-6.2,9.2v1.1h4.1v13.2c0,5.9,4.4,6.4,6.2,6.4
		c3.4,0,4.7-3.4,4.7-6.4v-2.7h-1.2v2.6c0,3.5-1.4,5.3-3.2,5.3c-3.2,0-3.2-4.3-3.2-5.2V66.3z M328.6,81.6v4.3l6.9-0.5v-1.5
		c-3.3,0-3.7-0.3-3.7-2.7v-17l-7,0.5v1.5c3.3,0,3.7,0.3,3.7,2.7v8.5c0,4.2-2.3,7.4-5.8,7.4c-4,0-4.2-2.2-4.2-4.7V64.2l-7,0.5v1.5
		c3.7,0,3.7,0.1,3.7,4.4v7.2c0,3.7,0,8.1,7.3,8.1C325.1,85.9,327.2,84.5,328.6,81.6z M291.8,79.9V69.3c1.4-2.4,3.7-3.8,6.2-3.8
		c3.5,0,6.4,4.2,6.4,9.6c0,5.8-3.3,9.8-6.9,9.8c-1.9,0-3.7-1-5-2.9C291.8,80.9,291.8,80.9,291.8,79.9z M291.6,67.4v-3.2l-6.9,0.5
		v1.5c3.4,0,3.7,0.3,3.7,2.4V91c0,2.1-0.5,2.1-3.7,2.1v1.5c1.6,0,4.1-0.1,5.3-0.1c1.3,0,3.7,0.1,5.4,0.1v-1.5c-3.2,0-3.7,0-3.7-2.1
		v-8v-0.4c0.2,0.8,2.2,3.3,5.9,3.3c5.7,0,10.7-4.7,10.7-10.8c0-6.1-4.6-10.8-10-10.8C294.6,64.2,292.6,66.3,291.6,67.4z M273.1,66.3
		h6.8v-1.5h-6.8V56h-1.2c0,3.9-1.5,9-6.2,9.2v1.1h4.1v13.2c0,5.9,4.4,6.4,6.2,6.4c3.4,0,4.7-3.4,4.7-6.4v-2.7h-1.2v2.6
		c0,3.5-1.4,5.3-3.2,5.3c-3.2,0-3.2-4.3-3.2-5.2V66.3z M257,81.6v4.3l6.9-0.5v-1.5c-3.3,0-3.7-0.3-3.7-2.7v-17l-7,0.5v1.5
		c3.3,0,3.7,0.3,3.7,2.7v8.5c0,4.2-2.3,7.4-5.8,7.4c-4,0-4.2-2.2-4.2-4.7V64.2l-7,0.5v1.5c3.7,0,3.7,0.1,3.7,4.4v7.2
		c0,3.7,0,8.1,7.3,8.1C253.5,85.9,255.6,84.5,257,81.6z M226.4,84.7c-2.1,0-4.2-1-5.4-3.2c-1.2-2.1-1.2-5-1.2-6.7
		c0-1.9,0-4.4,1.1-6.5c1.3-2.2,3.5-3.2,5.4-3.2c2.1,0,4.2,1.1,5.4,3.1c1.2,2.1,1.2,4.8,1.2,6.6c0,1.7,0,4.3-1.1,6.4
		C230.9,83.3,228.8,84.7,226.4,84.7z M236.9,75.1c0-6.1-4.8-11.2-10.6-11.2c-6,0-10.6,5.2-10.6,11.2c0,6.2,5,10.7,10.6,10.7
		C232.1,85.9,236.9,81.2,236.9,75.1z M193.7,52.2l-6.9,0.5v1.5c3.3,0,3.7,0.3,3.7,2.7v24.8c0,2.1-0.5,2.1-3.7,2.1v1.5
		c1.6,0,4.1-0.1,5.3-0.1c1.2,0,3.5,0.1,5.3,0.1v-1.5c-3.2,0-3.7,0-3.7-2.1V52.2z M176.9,73.9v4.8c0,4.5-3.4,6.2-5.6,6.2
		c-2.3,0-4.3-1.7-4.3-4.1C167,78.1,169,74.2,176.9,73.9z M177.2,81.7c0.2,1.9,1.5,3.9,3.7,3.9c1,0,3.9-0.7,3.9-4.5v-2.7h-1.2v2.7
		c0,2.8-1.2,3.1-1.7,3.1c-1.6,0-1.8-2.1-1.8-2.4v-9.6c0-2,0-3.9-1.7-5.6c-1.9-1.9-4.3-2.6-6.5-2.6c-3.9,0-7.2,2.2-7.2,5.4
		c0,1.4,1,2.2,2.2,2.2c1.3,0,2.2-1,2.2-2.2c0-0.6-0.2-2.1-2.4-2.2c1.3-1.7,3.6-2.2,5.2-2.2c2.3,0,5.1,1.9,5.1,6.1v1.8
		c-2.4,0.1-5.8,0.3-8.8,1.7c-3.6,1.6-4.8,4.1-4.8,6.2c0,3.9,4.6,5.1,7.6,5.1C174.1,85.9,176.3,84,177.2,81.7z M140,68.9v12.8
		c0,2.1-0.5,2.1-3.7,2.1v1.5c1.7,0,4.1-0.1,5.4-0.1c1.2,0,3.7,0.1,5.3,0.1v-1.5c-3.2,0-3.7,0-3.7-2.1v-8.8c0-5,3.4-7.6,6.4-7.6
		c3,0,3.5,2.6,3.5,5.3v11.1c0,2.1-0.5,2.1-3.7,2.1v1.5c1.7,0,4.1-0.1,5.4-0.1c1.2,0,3.7,0.1,5.3,0.1v-1.5c-2.5,0-3.7,0-3.7-1.4v-9.1
		c0-4.1,0-5.6-1.5-7.3c-0.7-0.8-2.2-1.8-5-1.8c-3.5,0-5.7,2.1-7.1,5v-5l-6.7,0.5v1.5C139.7,66.3,140,66.6,140,68.9z M124,66.3
		c2.2,0,2.5,0.6,2.5,2.6v12.9c0,2.1-0.5,2.1-3.7,2.1v1.5c1.6,0,4.1-0.1,5.3-0.1s3.5,0.1,5.3,0.1v-1.5c-3.2,0-3.7,0-3.7-2.1V64.2
		l-6,0.4c-0.8,0-0.8,0.1-0.9,0.1c-0.1,0-0.2,0-0.9,0h-5.6v-5.4c0-4.7,4.1-6.6,7.1-6.6c1.4,0,3.2,0.5,4.1,1.6c-2,0.1-2.2,1.4-2.2,2.2
		c0,1.6,1.2,2.2,2.1,2.2c1.1,0,2.2-0.8,2.2-2.2c0-2.8-2.6-4.8-6.2-4.8c-4.4,0-10.1,2.4-10.1,7.6v5.4h-3.8v1.5h3.8v15.5
		c0,2.1-0.5,2.1-3.7,2.1v1.5c1.6,0,4.1-0.1,5.3-0.1c1.2,0,3.5,0.1,5.3,0.1v-1.5c-3.2,0-3.7,0-3.7-2.1V66.3H124z M76.4,74.3h13.3
		c1.1,0,1.2,0,1.2-1c0-4.7-2.6-9.4-8.5-9.4c-5.5,0-9.9,4.9-9.9,10.9c0,6.4,5,11,10.5,11c5.8,0,8-5.3,8-6.2c0-0.5-0.4-0.6-0.6-0.6
		c-0.4,0-0.5,0.3-0.6,0.7c-1.7,4.9-6,4.9-6.4,4.9c-2.4,0-4.3-1.4-5.4-3.2C76.4,79.2,76.4,76,76.4,74.3z M76.5,73.3
		c0.3-7.1,4.3-8.3,5.9-8.3c4.9,0,5.4,6.4,5.4,8.3H76.5z M49.9,68.9v12.8c0,2.1-0.5,2.1-3.7,2.1v1.5c1.7,0,4.1-0.1,5.4-0.1
		c1.2,0,3.7,0.1,5.3,0.1v-1.5c-3.2,0-3.7,0-3.7-2.1v-8.8c0-5,3.4-7.6,6.4-7.6c3,0,3.5,2.6,3.5,5.3v11.1c0,2.1-0.5,2.1-3.7,2.1v1.5
		c1.7,0,4.1-0.1,5.4-0.1c1.2,0,3.7,0.1,5.3,0.1v-1.5c-2.5,0-3.7,0-3.7-1.4v-9.1c0-4.1,0-5.6-1.5-7.3c-0.7-0.8-2.2-1.8-5-1.8
		c-3.5,0-5.7,2.1-7.1,5v-5l-6.7,0.5v1.5C49.5,66.3,49.9,66.6,49.9,68.9z M26,85.2c-4.6,0-11-4.2-11-16.7c0-12.4,7-15.6,10.9-15.6
		c4.2,0,11,3.4,11,15.6C37,81.2,30.4,85.2,26,85.2z M41.9,69.2c0-9.7-7.2-17.5-15.9-17.5c-8.5,0-15.9,7.6-15.9,17.5
		c0,9.8,7.4,17.2,15.9,17.2C34.7,86.4,41.9,78.8,41.9,69.2z"/>
</g>
</svg>
